<mxfile host="app.diagrams.net" modified="2024-02-16T10:42:23.188Z" agent="Mozilla/5.0 (Windows NT 10.0; Win64; x64) AppleWebKit/537.36 (KHTML, like Gecko) Chrome/121.0.0.0 Safari/537.36" etag="AcldG6wdSJ2H3CiKHQ18" version="23.1.5" type="device">
  <diagram name="Страница — 1" id="Dqbl7NUGJo1QKrN5nHCF">
    <mxGraphModel dx="1050" dy="530" grid="1" gridSize="10" guides="1" tooltips="1" connect="1" arrows="1" fold="1" page="1" pageScale="1" pageWidth="827" pageHeight="1169" math="0" shadow="0">
      <root>
        <mxCell id="0" />
        <mxCell id="1" parent="0" />
        <mxCell id="CuiGXcV2ylz-t7WAoHUp-3" style="edgeStyle=orthogonalEdgeStyle;rounded=0;orthogonalLoop=1;jettySize=auto;html=1;exitX=1;exitY=0.5;exitDx=0;exitDy=0;entryX=0;entryY=0.5;entryDx=0;entryDy=0;" parent="1" source="CuiGXcV2ylz-t7WAoHUp-1" target="CuiGXcV2ylz-t7WAoHUp-2" edge="1">
          <mxGeometry relative="1" as="geometry" />
        </mxCell>
        <mxCell id="CuiGXcV2ylz-t7WAoHUp-1" value="" style="ellipse;whiteSpace=wrap;html=1;aspect=fixed;fillColor=#000000;" parent="1" vertex="1">
          <mxGeometry y="320" width="40" height="40" as="geometry" />
        </mxCell>
        <mxCell id="H53jDrW57Gt3jJ33HCJQ-1" style="edgeStyle=orthogonalEdgeStyle;rounded=0;orthogonalLoop=1;jettySize=auto;html=1;exitX=1;exitY=0.5;exitDx=0;exitDy=0;entryX=0;entryY=0.5;entryDx=0;entryDy=0;" parent="1" source="CuiGXcV2ylz-t7WAoHUp-2" target="CuiGXcV2ylz-t7WAoHUp-17" edge="1">
          <mxGeometry relative="1" as="geometry" />
        </mxCell>
        <mxCell id="CuiGXcV2ylz-t7WAoHUp-2" value="" style="rounded=1;whiteSpace=wrap;html=1;fillColor=#FFD4A3;" parent="1" vertex="1">
          <mxGeometry x="100" y="310" width="116" height="60" as="geometry" />
        </mxCell>
        <mxCell id="CuiGXcV2ylz-t7WAoHUp-4" value="Форма регистрации" style="text;strokeColor=none;align=center;fillColor=none;html=1;verticalAlign=middle;whiteSpace=wrap;rounded=0;fontSize=14;" parent="1" vertex="1">
          <mxGeometry x="108" y="310" width="100" height="60" as="geometry" />
        </mxCell>
        <mxCell id="CuiGXcV2ylz-t7WAoHUp-8" value="Нажатие кнопки &quot;Зарегистрироваться&quot;" style="text;strokeColor=none;align=center;fillColor=none;html=1;verticalAlign=middle;whiteSpace=wrap;rounded=0;fontSize=13;" parent="1" vertex="1">
          <mxGeometry x="250" y="295" width="144" height="45" as="geometry" />
        </mxCell>
        <mxCell id="CuiGXcV2ylz-t7WAoHUp-22" style="edgeStyle=orthogonalEdgeStyle;rounded=0;orthogonalLoop=1;jettySize=auto;html=1;exitX=0.5;exitY=1;exitDx=0;exitDy=0;entryX=0.5;entryY=0;entryDx=0;entryDy=0;" parent="1" source="CuiGXcV2ylz-t7WAoHUp-17" target="CuiGXcV2ylz-t7WAoHUp-21" edge="1">
          <mxGeometry relative="1" as="geometry" />
        </mxCell>
        <mxCell id="CuiGXcV2ylz-t7WAoHUp-26" style="edgeStyle=orthogonalEdgeStyle;rounded=0;orthogonalLoop=1;jettySize=auto;html=1;exitX=1;exitY=0.5;exitDx=0;exitDy=0;entryX=0;entryY=0.5;entryDx=0;entryDy=0;" parent="1" source="CuiGXcV2ylz-t7WAoHUp-17" target="CuiGXcV2ylz-t7WAoHUp-25" edge="1">
          <mxGeometry relative="1" as="geometry" />
        </mxCell>
        <mxCell id="CuiGXcV2ylz-t7WAoHUp-17" value="" style="rounded=1;whiteSpace=wrap;html=1;" parent="1" vertex="1">
          <mxGeometry x="425" y="300" width="140" height="80" as="geometry" />
        </mxCell>
        <mxCell id="CuiGXcV2ylz-t7WAoHUp-19" value="Валидация введенных данных на клиенте" style="text;strokeColor=none;align=center;fillColor=none;html=1;verticalAlign=middle;whiteSpace=wrap;rounded=0;fontSize=13;" parent="1" vertex="1">
          <mxGeometry x="430" y="305" width="130" height="70" as="geometry" />
        </mxCell>
        <mxCell id="CuiGXcV2ylz-t7WAoHUp-23" style="edgeStyle=orthogonalEdgeStyle;rounded=0;orthogonalLoop=1;jettySize=auto;html=1;exitX=0;exitY=0.5;exitDx=0;exitDy=0;entryX=0.5;entryY=1;entryDx=0;entryDy=0;" parent="1" source="CuiGXcV2ylz-t7WAoHUp-21" target="CuiGXcV2ylz-t7WAoHUp-4" edge="1">
          <mxGeometry relative="1" as="geometry">
            <mxPoint x="450" y="485" as="targetPoint" />
          </mxGeometry>
        </mxCell>
        <mxCell id="CuiGXcV2ylz-t7WAoHUp-21" value="" style="rhombus;whiteSpace=wrap;html=1;" parent="1" vertex="1">
          <mxGeometry x="475" y="470" width="40" height="30" as="geometry" />
        </mxCell>
        <mxCell id="CuiGXcV2ylz-t7WAoHUp-24" value="[Ошибка]" style="text;strokeColor=none;align=center;fillColor=none;html=1;verticalAlign=middle;whiteSpace=wrap;rounded=0;fontSize=13;" parent="1" vertex="1">
          <mxGeometry x="430" y="410" width="60" height="30" as="geometry" />
        </mxCell>
        <mxCell id="CuiGXcV2ylz-t7WAoHUp-35" style="edgeStyle=orthogonalEdgeStyle;rounded=0;orthogonalLoop=1;jettySize=auto;html=1;exitX=1;exitY=0.5;exitDx=0;exitDy=0;entryX=0;entryY=0.5;entryDx=0;entryDy=0;" parent="1" source="CuiGXcV2ylz-t7WAoHUp-25" target="CuiGXcV2ylz-t7WAoHUp-34" edge="1">
          <mxGeometry relative="1" as="geometry" />
        </mxCell>
        <mxCell id="CuiGXcV2ylz-t7WAoHUp-25" value="" style="rounded=1;whiteSpace=wrap;html=1;" parent="1" vertex="1">
          <mxGeometry x="820" y="300" width="150" height="80" as="geometry" />
        </mxCell>
        <mxCell id="CuiGXcV2ylz-t7WAoHUp-27" value="[Успех]" style="text;strokeColor=none;align=center;fillColor=none;html=1;verticalAlign=middle;whiteSpace=wrap;rounded=0;fontSize=13;" parent="1" vertex="1">
          <mxGeometry x="640" y="310" width="100" height="30" as="geometry" />
        </mxCell>
        <mxCell id="CuiGXcV2ylz-t7WAoHUp-28" value="Отправка данных на сервер (например, в JSON-формате)" style="text;strokeColor=none;align=center;fillColor=none;html=1;verticalAlign=middle;whiteSpace=wrap;rounded=0;fontSize=13;" parent="1" vertex="1">
          <mxGeometry x="830" y="305" width="130" height="70" as="geometry" />
        </mxCell>
        <mxCell id="CuiGXcV2ylz-t7WAoHUp-32" style="edgeStyle=orthogonalEdgeStyle;rounded=0;orthogonalLoop=1;jettySize=auto;html=1;exitX=0;exitY=0.5;exitDx=0;exitDy=0;entryX=1;entryY=0.5;entryDx=0;entryDy=0;" parent="1" source="CuiGXcV2ylz-t7WAoHUp-29" target="CuiGXcV2ylz-t7WAoHUp-21" edge="1">
          <mxGeometry relative="1" as="geometry" />
        </mxCell>
        <mxCell id="CuiGXcV2ylz-t7WAoHUp-29" value="" style="rhombus;whiteSpace=wrap;html=1;" parent="1" vertex="1">
          <mxGeometry x="875" y="470" width="40" height="30" as="geometry" />
        </mxCell>
        <mxCell id="CuiGXcV2ylz-t7WAoHUp-31" style="edgeStyle=orthogonalEdgeStyle;rounded=0;orthogonalLoop=1;jettySize=auto;html=1;exitX=0.5;exitY=1;exitDx=0;exitDy=0;entryX=0.5;entryY=0;entryDx=0;entryDy=0;" parent="1" source="CuiGXcV2ylz-t7WAoHUp-25" target="CuiGXcV2ylz-t7WAoHUp-29" edge="1">
          <mxGeometry relative="1" as="geometry" />
        </mxCell>
        <mxCell id="CuiGXcV2ylz-t7WAoHUp-33" value="[Ошибка]" style="text;strokeColor=none;align=center;fillColor=none;html=1;verticalAlign=middle;whiteSpace=wrap;rounded=0;fontSize=13;" parent="1" vertex="1">
          <mxGeometry x="830" y="410" width="60" height="30" as="geometry" />
        </mxCell>
        <mxCell id="CuiGXcV2ylz-t7WAoHUp-37" style="edgeStyle=orthogonalEdgeStyle;rounded=0;orthogonalLoop=1;jettySize=auto;html=1;exitX=0.5;exitY=1;exitDx=0;exitDy=0;entryX=0.5;entryY=0;entryDx=0;entryDy=0;" parent="1" source="CuiGXcV2ylz-t7WAoHUp-34" target="CuiGXcV2ylz-t7WAoHUp-36" edge="1">
          <mxGeometry relative="1" as="geometry" />
        </mxCell>
        <mxCell id="CuiGXcV2ylz-t7WAoHUp-34" value="" style="rounded=1;whiteSpace=wrap;html=1;" parent="1" vertex="1">
          <mxGeometry x="1260" y="300" width="150" height="80" as="geometry" />
        </mxCell>
        <mxCell id="CuiGXcV2ylz-t7WAoHUp-38" style="edgeStyle=orthogonalEdgeStyle;rounded=0;orthogonalLoop=1;jettySize=auto;html=1;exitX=0;exitY=0.5;exitDx=0;exitDy=0;entryX=1;entryY=0.5;entryDx=0;entryDy=0;" parent="1" source="CuiGXcV2ylz-t7WAoHUp-36" target="CuiGXcV2ylz-t7WAoHUp-29" edge="1">
          <mxGeometry relative="1" as="geometry" />
        </mxCell>
        <mxCell id="CuiGXcV2ylz-t7WAoHUp-36" value="" style="rhombus;whiteSpace=wrap;html=1;" parent="1" vertex="1">
          <mxGeometry x="1315" y="470" width="40" height="30" as="geometry" />
        </mxCell>
        <mxCell id="CuiGXcV2ylz-t7WAoHUp-39" value="[Ошибка]" style="text;strokeColor=none;align=center;fillColor=none;html=1;verticalAlign=middle;whiteSpace=wrap;rounded=0;fontSize=13;" parent="1" vertex="1">
          <mxGeometry x="1270" y="410" width="60" height="30" as="geometry" />
        </mxCell>
        <mxCell id="CuiGXcV2ylz-t7WAoHUp-40" value="[Успех]" style="text;strokeColor=none;align=center;fillColor=none;html=1;verticalAlign=middle;whiteSpace=wrap;rounded=0;fontSize=13;" parent="1" vertex="1">
          <mxGeometry x="1070" y="310" width="100" height="30" as="geometry" />
        </mxCell>
        <mxCell id="CuiGXcV2ylz-t7WAoHUp-45" style="edgeStyle=orthogonalEdgeStyle;rounded=0;orthogonalLoop=1;jettySize=auto;html=1;exitX=1;exitY=0.5;exitDx=0;exitDy=0;entryX=0;entryY=0.5;entryDx=0;entryDy=0;" parent="1" source="CuiGXcV2ylz-t7WAoHUp-41" target="CuiGXcV2ylz-t7WAoHUp-44" edge="1">
          <mxGeometry relative="1" as="geometry" />
        </mxCell>
        <mxCell id="CuiGXcV2ylz-t7WAoHUp-41" value="Валидация полученных данных на сервере" style="text;strokeColor=none;align=center;fillColor=none;html=1;verticalAlign=middle;whiteSpace=wrap;rounded=0;fontSize=13;" parent="1" vertex="1">
          <mxGeometry x="1260" y="300" width="150" height="80" as="geometry" />
        </mxCell>
        <mxCell id="CuiGXcV2ylz-t7WAoHUp-44" value="" style="rounded=1;whiteSpace=wrap;html=1;" parent="1" vertex="1">
          <mxGeometry x="1530" y="300" width="140" height="80" as="geometry" />
        </mxCell>
        <mxCell id="CuiGXcV2ylz-t7WAoHUp-46" value="" style="endArrow=classic;html=1;rounded=0;exitX=0.09;exitY=1;exitDx=0;exitDy=0;exitPerimeter=0;entryX=1;entryY=0.5;entryDx=0;entryDy=0;" parent="1" source="CuiGXcV2ylz-t7WAoHUp-44" target="CuiGXcV2ylz-t7WAoHUp-36" edge="1">
          <mxGeometry width="50" height="50" relative="1" as="geometry">
            <mxPoint x="1370" y="430" as="sourcePoint" />
            <mxPoint x="1420" y="380" as="targetPoint" />
            <Array as="points">
              <mxPoint x="1543" y="485" />
            </Array>
          </mxGeometry>
        </mxCell>
        <mxCell id="CuiGXcV2ylz-t7WAoHUp-47" value="[Ошибка]" style="text;strokeColor=none;align=center;fillColor=none;html=1;verticalAlign=middle;whiteSpace=wrap;rounded=0;fontSize=13;" parent="1" vertex="1">
          <mxGeometry x="1480" y="410" width="60" height="30" as="geometry" />
        </mxCell>
        <mxCell id="CuiGXcV2ylz-t7WAoHUp-48" value="[Успех]" style="text;strokeColor=none;align=center;fillColor=none;html=1;verticalAlign=middle;whiteSpace=wrap;rounded=0;fontSize=13;" parent="1" vertex="1">
          <mxGeometry x="1420" y="310" width="100" height="30" as="geometry" />
        </mxCell>
        <mxCell id="CuiGXcV2ylz-t7WAoHUp-51" style="edgeStyle=orthogonalEdgeStyle;rounded=0;orthogonalLoop=1;jettySize=auto;html=1;exitX=0.5;exitY=1;exitDx=0;exitDy=0;entryX=0.5;entryY=0;entryDx=0;entryDy=0;" parent="1" source="CuiGXcV2ylz-t7WAoHUp-49" target="CuiGXcV2ylz-t7WAoHUp-50" edge="1">
          <mxGeometry relative="1" as="geometry" />
        </mxCell>
        <mxCell id="CuiGXcV2ylz-t7WAoHUp-49" value="Создание аккаунта с полученными данными" style="text;strokeColor=none;align=center;fillColor=none;html=1;verticalAlign=middle;whiteSpace=wrap;rounded=0;" parent="1" vertex="1">
          <mxGeometry x="1530" y="300" width="140" height="80" as="geometry" />
        </mxCell>
        <mxCell id="CuiGXcV2ylz-t7WAoHUp-50" value="" style="rounded=1;whiteSpace=wrap;html=1;fillColor=#FFD4A3;" parent="1" vertex="1">
          <mxGeometry x="1542" y="600" width="116" height="60" as="geometry" />
        </mxCell>
        <mxCell id="CuiGXcV2ylz-t7WAoHUp-52" value="[Успех]" style="text;strokeColor=none;align=center;fillColor=none;html=1;verticalAlign=middle;whiteSpace=wrap;rounded=0;fontSize=13;" parent="1" vertex="1">
          <mxGeometry x="1520" y="490" width="100" height="30" as="geometry" />
        </mxCell>
        <mxCell id="CuiGXcV2ylz-t7WAoHUp-53" value="Форма входа" style="text;strokeColor=none;align=center;fillColor=none;html=1;verticalAlign=middle;whiteSpace=wrap;rounded=0;fontSize=14;" parent="1" vertex="1">
          <mxGeometry x="1545" y="605" width="110" height="50" as="geometry" />
        </mxCell>
        <mxCell id="K0WmyleBu0MjA5sR9pw_-1" value="" style="shape=callout;whiteSpace=wrap;html=1;perimeter=calloutPerimeter;fillColor=#FFF6A8;" vertex="1" parent="1">
          <mxGeometry x="1750" y="350" width="120" height="110" as="geometry" />
        </mxCell>
        <mxCell id="K0WmyleBu0MjA5sR9pw_-2" value="Сообщение: &quot;Аккаунт успешно зарегистрирован&quot;" style="text;strokeColor=none;align=center;fillColor=none;html=1;verticalAlign=middle;whiteSpace=wrap;rounded=0;fontSize=13;" vertex="1" parent="1">
          <mxGeometry x="1750" y="360" width="120" height="60" as="geometry" />
        </mxCell>
        <mxCell id="K0WmyleBu0MjA5sR9pw_-3" value="" style="endArrow=classic;html=1;rounded=0;exitX=0;exitY=0;exitDx=0;exitDy=80;exitPerimeter=0;" edge="1" parent="1" source="K0WmyleBu0MjA5sR9pw_-1">
          <mxGeometry width="50" height="50" relative="1" as="geometry">
            <mxPoint x="1420" y="500" as="sourcePoint" />
            <mxPoint x="1600" y="470" as="targetPoint" />
          </mxGeometry>
        </mxCell>
      </root>
    </mxGraphModel>
  </diagram>
</mxfile>
